<svg width="84" height="86" viewBox="0 0 84 86" fill="none" xmlns="http://www.w3.org/2000/svg">
<path d="M84 43.9773C84 40.9282 83.7273 37.9964 83.2208 35.1818H42.8571V51.8345H65.9221C64.9091 57.19 61.8701 61.7245 57.3117 64.7736V75.6018H71.2208C79.3247 68.0964 84 57.0727 84 43.9773Z" fill="#709679"/>
<path d="M42.8571 86C54.4286 86 64.1299 82.1691 71.2208 75.6018L57.3117 64.7736C53.4935 67.3536 48.6234 68.9173 42.8571 68.9173C31.7143 68.9173 22.2468 61.3727 18.8571 51.2091H4.5974V62.3109C11.6494 76.3445 26.1039 86 42.8571 86Z" fill="#A0D199"/>
<path d="M18.8571 51.17C18 48.59 17.4935 45.8536 17.4935 43C17.4935 40.1464 18 37.41 18.8571 34.83V23.7282H4.5974C1.67533 29.5136 0 36.0418 0 43C0 49.9582 1.67533 56.4864 4.5974 62.2718L15.7013 53.5936L18.8571 51.17Z" fill="#4D7C58"/>
<path d="M42.8571 17.1218C49.1688 17.1218 54.7792 19.3109 59.2597 23.5327L71.5325 11.2191C64.0909 4.26091 54.4286 0 42.8571 0C26.1039 0 11.6494 9.65546 4.5974 23.7282L18.8571 34.83C22.2468 24.6664 31.7143 17.1218 42.8571 17.1218Z" fill="#19410F"/>
</svg>
